<?xml version="1.0" standalone="no"?>
<!DOCTYPE svg PUBLIC "-//W3C//DTD SVG 20010904//EN"
 "http://www.w3.org/TR/2001/REC-SVG-20010904/DTD/svg10.dtd">
<svg version="1.0" xmlns="http://www.w3.org/2000/svg"
 width="176.000000pt" height="176.000000pt" viewBox="0 0 176.000000 176.000000"
 preserveAspectRatio="xMidYMid meet">
<metadata>
Created by potrace 1.14, written by Peter Selinger 2001-2017
</metadata>
<g transform="translate(0.000000,176.000000) scale(0.100000,-0.100000)"
fill="#000000" stroke="none">
<path d="M745 1596 c-128 -26 -188 -54 -277 -133 -66 -59 -141 -157 -157 -208
-5 -16 -17 -50 -27 -75 -21 -57 -26 -218 -8 -280 29 -101 75 -200 94 -200 5 0
16 10 24 22 9 12 16 18 16 12 0 -6 -9 -20 -20 -31 -17 -19 -17 -23 -4 -34 11
-9 18 -8 34 6 11 10 20 13 20 8 0 -6 10 -13 21 -16 24 -6 23 -18 -5 -96 -16
-40 -16 -45 2 -75 10 -17 28 -32 41 -34 29 -5 74 25 67 44 -3 9 -1 12 4 9 10
-6 14 19 11 71 -2 33 20 64 45 64 8 0 23 -9 34 -20 16 -16 20 -33 20 -89 0
-38 -7 -88 -15 -111 -17 -49 -6 -114 21 -124 31 -12 68 -6 89 14 20 19 22 28
17 120 -4 89 -3 102 18 135 46 74 83 23 74 -101 -6 -76 -5 -83 14 -93 33 -17
75 -13 105 12 31 24 31 25 -4 143 -11 36 -10 44 7 67 23 32 50 43 69 27 11 -9
15 -34 15 -91 0 -97 9 -122 53 -142 44 -21 42 -22 72 10 33 36 33 83 0 157
-28 64 -30 77 -13 123 9 25 17 33 33 31 17 -3 20 -11 23 -68 4 -79 21 -104 66
-94 34 7 66 31 66 48 0 6 -9 22 -20 36 -13 18 -16 28 -8 37 7 9 7 13 0 13 -22
0 -21 46 4 87 14 24 22 43 18 43 -3 0 -1 7 6 14 6 8 13 30 15 48 2 18 6 52 10
75 3 23 2 66 -3 96 -7 45 -6 58 9 76 21 26 27 26 29 4 0 -10 3 -62 6 -116 3
-54 3 -105 0 -114 -6 -14 -8 -14 -21 3 -8 10 -14 15 -14 9 -1 -5 8 -21 17 -33
l18 -24 11 54 c15 75 9 214 -11 268 -10 25 -22 59 -27 75 -16 51 -91 150 -159
210 -71 63 -138 101 -215 122 -76 20 -229 25 -310 9z m94 -56 c-6 -4 -26 -4
-45 0 -19 4 -32 4 -29 0 4 -7 -51 -32 -75 -35 -29 -3 -133 -81 -196 -147 -77
-81 -153 -205 -139 -227 3 -5 1 -12 -4 -16 -6 -3 -10 -53 -9 -111 0 -83 -3
-110 -15 -122 -14 -14 -17 -12 -24 14 -6 25 -7 109 -3 204 1 14 6 30 12 37 5
7 7 16 4 21 -3 5 1 21 9 35 8 15 14 30 14 32 1 23 63 125 102 169 63 70 199
157 232 148 4 -1 18 3 30 10 38 21 110 26 130 9 12 -10 14 -17 6 -21z m61 25
c-15 -19 -21 -19 -46 0 -18 13 -16 14 20 15 33 0 37 -2 26 -15z m78 -8 c-17
-17 -67 -27 -74 -16 -3 5 2 9 10 9 9 0 16 5 16 10 0 6 14 10 31 10 25 0 28 -2
17 -13z m55 -27 c10 -10 9 -11 -3 -4 -8 5 -21 9 -28 10 -8 2 -17 5 -20 8 -3 4
4 5 16 3 12 -2 28 -9 35 -17z m-65 -114 c83 -43 119 -139 90 -240 -23 -80 -75
-128 -172 -154 -36 -10 -43 -8 -121 34 -151 82 -197 82 -283 0 -53 -49 -55
-50 -47 -21 4 17 9 42 10 57 5 49 65 162 113 211 49 51 96 80 172 109 58 21
200 24 238 4z m397 -156 c3 -5 1 -10 -4 -10 -6 0 -11 5 -11 10 0 6 2 10 4 10
3 0 8 -4 11 -10z m45 -39 c-7 -14 -7 -20 1 -23 7 -2 4 -10 -7 -18 -16 -14 -17
-13 -11 4 6 14 4 17 -10 12 -13 -5 -11 0 6 18 29 31 35 33 21 7z m5 -71 c-10
-11 -20 -18 -23 -15 -3 3 3 14 13 25 10 11 20 18 23 15 3 -3 -3 -14 -13 -25z
m-915 -115 c-24 -25 -46 -45 -49 -45 -3 0 15 20 39 45 24 25 46 45 49 45 3 0
-15 -20 -39 -45z m-140 -163 c0 -14 -39 -46 -47 -39 -3 4 2 16 12 27 19 21 35
26 35 12z m0 -77 c-7 -9 -15 -13 -18 -10 -3 2 1 11 8 20 7 9 15 13 18 10 3 -2
-1 -11 -8 -20z m10 -30 c-7 -8 -17 -15 -23 -15 -5 0 -2 9 8 20 21 23 35 19 15
-5z"/>
<path d="M490 1413 c-80 -75 -96 -98 -78 -109 7 -4 10 -4 7 0 -3 3 33 44 80
91 101 100 93 115 -9 18z"/>
<path d="M335 1160 c3 -5 8 -10 11 -10 2 0 4 5 4 10 0 6 -5 10 -11 10 -5 0 -7
-4 -4 -10z"/>
<path d="M320 1120 c0 -5 5 -10 10 -10 6 0 10 5 10 10 0 6 -4 10 -10 10 -5 0
-10 -4 -10 -10z"/>
<path d="M315 1059 c-4 -6 -5 -12 -2 -15 2 -3 7 2 10 11 7 17 1 20 -8 4z"/>
<path d="M317 953 c-4 -3 -7 -11 -7 -17 0 -6 5 -5 12 2 6 6 9 14 7 17 -3 3 -9
2 -12 -2z"/>
<path d="M1425 1090 c-3 -5 -1 -10 4 -10 6 0 11 5 11 10 0 6 -2 10 -4 10 -3 0
-8 -4 -11 -10z"/>
<path d="M1410 861 c0 -5 5 -13 10 -16 6 -3 10 -2 10 4 0 5 -4 13 -10 16 -5 3
-10 2 -10 -4z"/>
<path d="M1415 779 c-4 -6 -5 -12 -2 -15 2 -3 7 2 10 11 7 17 1 20 -8 4z"/>
<path d="M1312 473 c-6 -10 -13 -33 -17 -51 -6 -27 -3 -38 16 -58 29 -31 43
-30 79 5 33 31 38 65 14 99 -19 28 -79 31 -92 5z"/>
<path d="M922 287 c-26 -27 -29 -73 -6 -105 20 -29 33 -28 77 6 32 23 36 31
31 57 -6 32 -39 64 -65 65 -8 0 -25 -10 -37 -23z"/>
</g>
</svg>
